<?xml version="1.0" encoding="utf-8"?>
<!-- Generator: Adobe Illustrator 19.0.0, SVG Export Plug-In . SVG Version: 6.00 Build 0)  -->
<svg version="1.1" id="layer" xmlns="http://www.w3.org/2000/svg" xmlns:xlink="http://www.w3.org/1999/xlink" x="0px" y="0px"
	 viewBox="-153 -46 652 652" style="enable-background:new -153 -46 652 652;" xml:space="preserve">
<style type="text/css">
	.st0{fill:#D9272E;}
</style>
<path id="XMLID_1_" class="st0" d="M-125.1,371.2h-5.1v21.6h12.4l-0.7-4.8h-6.6V371.2z M-103.5,371.2h-5.9l-7.7,21.6h5.1l1.5-4.4
	h7.3l1.8,4.8l5.5-0.7L-103.5,371.2L-103.5,371.2z M-109.3,384l2.2-7.7l2.6,7.7H-109.3L-109.3,384z M-76.4,371.2h-5.5v15.4
	c-1.5,1.1-2.9,1.8-4.4,1.8c-1.8,0-2.9-1.1-2.9-3.3v-13.9h-5.5v14.6c0,5.1,2.6,7,6.6,7c2.2,0,4.4-0.7,6.2-2.2l0.4,1.8h4.4v-21.2
	H-76.4L-76.4,371.2z M-65.4,371.2h-7.7v21.2h5.5v-7.3h1.5l4.8,7.7l5.5-0.7l-5.1-7.7c2.6-1.1,4-3.3,4-6.2
	C-57,373.7-60,371.2-65.4,371.2 M-67.3,381.4v-6.2h1.8c2.2,0,3.7,1.1,3.7,2.9c0,1.8-1.5,3.3-3.7,3.3H-67.3z M-40.6,371.2h-13.2v21.6
	h13.5v-4.4h-8.4v-4.8h6.6l-0.4-4h-6.2v-4h8C-40.6,375.6-40.6,371.2-40.6,371.2z M-25.6,371.2h-5.9l-7.7,21.6h5.1l1.5-4.4h7.3
	l1.8,4.8l5.5-0.7C-17.9,392.4-25.6,371.2-25.6,371.2z M-31.1,384l2.6-7.7l2.2,7.7H-31.1L-31.1,384z M-0.3,371.2h-16.8v4.4h5.9v17.2
	h5.5v-17.2h6.2L-0.3,371.2z M15.8,371.2H2.6v21.6h13.5v-4.4H7.7v-4.8h7l-0.7-4H7.7v-4h8C15.8,375.6,15.8,371.2,15.8,371.2z
	 M25.3,371.2h5.5v21.2h-5.5V371.2z M52.4,371.2h-5.1v12.1l-7.7-12.1h-5.5v21.6h5.1V380l8.4,12.8h4.8L52.4,371.2L52.4,371.2z
	 M71.7,371.2H54.6v4.4h6.2v17.2h5.1v-17.2h6.6L71.7,371.2L71.7,371.2z M87.8,371.2H74.3v21.6h13.5v-4.4h-8v-4.8h6.6l-0.4-4h-6.2v-4
	h8L87.8,371.2L87.8,371.2z M98.1,371.2h-7.7v21.2h5.5v-7.3h1.5l4.8,7.7l5.5-0.7l-5.1-7.7c2.6-1.1,4-3.3,4-6.2
	C106.5,373.7,103.6,371.2,98.1,371.2 M95.9,381.4v-6.2h1.8c2.2,0,3.7,1.1,3.7,2.9c0,1.8-1.5,3.3-3.7,3.3H95.9z M127.4,371.2h-4.8
	v12.1l-7.7-12.1h-5.5v21.6h5.1V380l8.4,12.8h4.4V371.2L127.4,371.2z M143.1,371.2h-5.9l-7.7,21.6h5.1l1.5-4.4h7.3l1.8,4.8l5.5-0.7
	L143.1,371.2L143.1,371.2z M137.6,384l2.6-7.7l2.2,7.7H137.6L137.6,384z M168.3,371.2h-16.8v4.4h5.9v17.2h5.5v-17.2h6.2L168.3,371.2
	L168.3,371.2z M171.6,371.2h5.5v21.2h-5.5V371.2z M189.9,370.8c-6.2,0-10.2,4.4-10.2,11.3c0,6.6,4,11,9.9,11h0.4
	c6.2,0,10.2-4.4,10.2-11.3C200.2,375.6,196.1,370.8,189.9,370.8 M189.9,389.1c-2.9,0-4.8-2.6-4.8-7s1.8-7,4.8-7c3.3,0,4.8,2.6,4.8,7
	C195,386.2,192.8,389.1,189.9,389.1 M221,371.2h-4.8v12.1l-8-12.1h-5.5v21.6h5.1V380l8.4,12.8h4.8L221,371.2L221,371.2z
	 M236.7,371.2h-5.9l-7.7,21.6h5.1l1.5-4.4h7.3l1.8,4.8l5.5-0.7L236.7,371.2L236.7,371.2z M230.9,384l2.2-7.7l2.2,7.7H230.9z
	 M251.4,371.2h-5.5v21.6h12.8L258,388h-6.6V371.2z M284.7,371.2h-5.1v15.4c-1.5,1.1-2.9,1.8-4.4,1.8c-1.8,0-2.9-1.1-2.9-3.3v-13.9
	h-5.5v14.6c0,5.1,2.6,7,6.6,7c2.2,0,4.4-0.7,6.2-2.2l0.4,1.8h4.4L284.7,371.2L284.7,371.2z M306.3,371.2h-4.8v12.1l-8-12.1h-5.1
	v21.6h5.1V380l8.4,12.8h4.4V371.2z M309.9,371.2h5.5v21.2h-5.5V371.2z M323.5,371.2l-5.9,0.7l7.3,20.9h5.9l7.7-21.6H333l-4.8,15
	L323.5,371.2z M353.8,371.2h-13.5v21.6h13.9v-4.4h-8.4v-4.8h6.6l-0.4-4h-6.2v-4h8L353.8,371.2L353.8,371.2z M364.1,371.2h-7.7v21.2
	h5.5v-7.3h1.5l4.8,7.7l5.5-0.7l-5.1-7.7c2.6-1.1,4-3.3,4-6.2C372.5,373.7,369.6,371.2,364.1,371.2 M361.9,381.4v-6.2h1.8
	c2.2,0,3.7,1.1,3.7,2.9c0,1.8-1.5,3.3-3.7,3.3H361.9z M382.4,371.2c-4,0-7.3,2.2-7.3,6.2c0,3.7,1.8,5.1,6.2,6.6
	c2.9,1.1,3.7,1.8,3.7,2.9c0,1.5-1.1,1.8-2.6,1.8c-2.2,0-4.4-0.7-7-1.8l-0.7,4.4c2.2,1.1,5.1,1.8,7.7,1.8c4.4,0,7.7-1.8,7.7-6.6
	c0-3.3-1.8-5.1-6.6-6.6c-2.6-1.1-3.3-1.5-3.3-2.6s0.7-1.8,2.2-1.8c1.8,0,3.7,0.7,5.5,1.8l0.7-4.4
	C387.1,371.6,385.3,371.2,382.4,371.2 M392.6,371.2h5.5v21.2h-5.5V371.2z M417.5,371.2l0.7,4.4h-6.6v17.2h-5.1v-17.2h-6.2v-4.4
	H417.5L417.5,371.2z M420.4,371.2h5.5v21.2h-5.5V371.2z M442.7,371.2h-13.5v21.6h13.9v-4.4h-8.4v-4.8h7l-0.7-4h-6.2v-4h8
	L442.7,371.2L442.7,371.2z M452.6,371.2c-4,0-7.3,2.2-7.3,6.2c0,3.7,1.8,5.1,6.2,6.6c2.9,1.1,3.7,1.8,3.7,2.9c0,1.5-1.1,1.8-2.6,1.8
	c-2.2,0-4.4-0.7-7-1.8l-0.7,4.4c2.2,1.1,5.1,1.8,7.7,1.8c4.4,0,7.7-1.8,7.7-6.6c0-3.3-1.8-5.1-6.6-6.6c-2.6-1.1-3.3-1.5-3.3-2.6
	s0.7-1.8,2.2-1.8c1.8,0,3.7,0.7,5.9,1.8l0.7-4.4C457,371.6,455.2,371.2,452.6,371.2 M464.7,372.6c-1.8,0-3.3,1.5-3.3,3.3
	c0,1.8,1.5,3.3,3.3,3.3c1.8,0,3.3-1.5,3.3-3.3C468,374.1,466.5,372.6,464.7,372.6 M464.7,378.9c-1.5,0-2.6-1.1-2.6-2.9
	c0-1.8,1.1-2.9,2.6-2.9s2.6,1.1,2.6,2.9C467.2,377.8,466.1,378.9,464.7,378.9 M464.7,374.1h-1.5v3.7h1.1v-1.5l0.7,1.5h1.1l-0.7-1.5
	c0.4,0,0.7-0.4,0.7-1.1C466.1,374.5,465.4,374.1,464.7,374.1 M464.3,375.6v-0.7h0.4c0.4,0,0.4,0,0.4,0.4
	C465,375.6,465,375.6,464.3,375.6z M-131.3,336.8h600v2.9h-600L-131.3,336.8L-131.3,336.8z M-131.3,156.1v97.3
	c0,12.1,2.6,26.7,16.5,37.7c16.8,13.2,43.9,14.6,63.3,14.6c21.6,0,46.8-2.2,62.9-13.2c16.8-11,19-25.2,19-39.5v-97
	c-16.5,0-30.7,5.1-37.3,12.4v79.4c0,7.7,0,17.6-10.6,24.1c-7.7,4.8-20.1,5.9-34.4,5.9c-11.3,0-23.8-0.4-31.5-5.5
	c-9.1-5.9-9.5-13.9-9.5-22v-82C-100.2,161.2-114.5,156.1-131.3,156.1 M252.5,156.1c-19,0-35.1,5.1-42.8,12.4l-58.9,89.3l-58.9-89.3
	c-7.7-7.3-23.8-12.4-42.4-12.4H37.7L138,305.7h26.3l100.6-149.6H252.5z M466.9,156.1c-16.8,0-31.5,5.1-38,12.4l-58.2,64l-57.8-63.7
	c-6.6-7.7-21.2-12.8-38.4-12.8h-1.8v149.6h37v-92.6l60.7,69.1l60.7-69.1v92.9h37.7v-150H466.9L466.9,156.1z"/>
</svg>
